<?xml version="1.0" encoding="utf-8"?>
<svg version="1.1" x="0px" y="0px" width="719px" height="750px" viewBox="0 0 719 750" style="enable-background:new 0 0 719 750;" xmlns="http://www.w3.org/2000/svg" xmlns:xlink="http://www.w3.org/1999/xlink">
  <defs>
    <clipPath id="clip-1">
      <circle cx="359.146" cy="386.632" r="305.041" style="overflow: visible; fill: rgb(255, 97, 97);"/>
    </clipPath>
    <clipPath id="clip-0">
      <circle cx="359.494" cy="386.252" r="305.041" style="overflow: visible;"/>
    </clipPath>
    <clipPath id="clip-2">
      <circle cx="359.494" cy="386.252" r="305.041" style="overflow: visible;"/>
    </clipPath>
    <clipPath id="clip-3">
      <circle cx="359.494" cy="386.252" r="305.041" style="overflow: visible;"/>
    </clipPath>
  </defs>
  <style type="text/css">
	.st0{display:none;}
	.st1{display:inline;}
	.st2{fill:none;}
	.st3{clip-path:url(#SVGID_00000154386757119113758540000016134553883902596534_);fill:#00234B;}
	.st4{fill:none;stroke:#FFFFFF;stroke-width:13;stroke-miterlimit:10;}
	.st5{fill:#FFFFFF;}
	.st6{fill:none;stroke:#FFFFFF;stroke-width:10;stroke-miterlimit:10;}
	.st7{fill:#00234B;}
</style>
  <g id="Reference" class="st0">
    <g id="oLfI74_00000058550405138528408610000010951334597005129662_" class="st1">
      <image style="overflow: visible;" width="524" height="510" transform="matrix(1 0 0 1 104.8945 129.669)" xlink:href="714BB5269479AF7E.jpg"/>
    </g>
  </g>
  <g id="Layer_2">
    <path id="SVGID_x5F_1_x5F_" class="st2" d="M704.617,407.743c0,188.175-149.293,340.72-333.456,340.72 S37.706,595.917,37.706,407.743s149.293-340.72,333.456-340.72S704.617,219.568,704.617,407.743z" style=""/>
    <text class="st0" style="white-space: pre;">	<textPath startOffset="37131.8594%" class="st1" xlink:href="#SVGID_x5F_1_x5F_">
<tspan style="fill:#044A8B; font-family:'Gotham-Bold'; font-size:80px;">Modflow and more 2022 </tspan>	</textPath>
</text>
    <g>
      <defs>
        <circle id="SVGID_00000056393345347398523310000006722118614178578085_" cx="359.494" cy="386.252" r="305.041"/>
      </defs>
    </g>
    <g>
      <g/>
      <g>
        <rect x="20.621" y="33.396" style="fill: rgb(1, 35, 83); clip-path: url(#clip-0);" width="656.091" height="674.358" transform="matrix(0, -1, 1, 0, -26.758026, 745.746033)"/>
        <path class="st4" d="M 15.161 478.372 C 32.47 478.372 32.47 502.372 49.78 502.372 C 67.091 502.372 67.091 478.372 84.402 478.372 C 101.712 478.372 101.712 502.372 119.021 502.372 C 136.332 502.372 136.332 478.372 153.642 478.372 C 170.952 478.372 170.952 502.372 188.262 502.372 C 205.572 502.372 205.572 478.372 222.882 478.372 C 240.193 478.372 240.193 502.372 257.503 502.372 C 274.814 502.372 274.814 478.372 292.126 478.372 C 309.438 478.372 309.438 502.372 326.75 502.372 C 344.059 502.372 344.059 478.372 361.368 478.372 C 378.678 478.372 378.678 502.372 395.987 502.372 C 413.299 502.372 413.299 478.372 430.61 478.372 C 447.922 478.372 447.922 502.372 465.234 502.372 C 482.547 502.372 482.547 478.372 499.86 478.372 C 517.172 478.372 517.172 502.372 534.484 502.372 C 551.799 502.372 551.799 478.372 569.113 478.372 C 586.428 478.372 586.428 502.372 603.742 502.372" style="clip-path: url(#clip-2);"/>
        <path class="st4" d="M 42.763 542.817 C 60.072 542.817 60.072 566.817 77.382 566.817 C 94.693 566.817 94.693 542.817 112.004 542.817 C 129.314 542.817 129.314 566.817 146.623 566.817 C 163.934 566.817 163.934 542.817 181.244 542.817 C 198.554 542.817 198.554 566.817 215.864 566.817 C 233.174 566.817 233.174 542.817 250.484 542.817 C 267.795 542.817 267.795 566.817 285.105 566.817 C 302.416 566.817 302.416 542.817 319.728 542.817 C 337.04 542.817 337.04 566.817 354.352 566.817 C 371.661 566.817 371.661 542.817 388.97 542.817 C 406.28 542.817 406.28 566.817 423.589 566.817 C 440.901 566.817 440.901 542.817 458.212 542.817 C 475.524 542.817 475.524 566.817 492.836 566.817 C 510.149 566.817 510.149 542.817 527.462 542.817 C 544.774 542.817 544.774 566.817 562.086 566.817 C 579.401 566.817 579.401 542.817 596.715 542.817 C 614.03 542.817 614.03 566.817 631.344 566.817" style="clip-path: url(#clip-3);"/>
        <path class="st4" d="M 115.096 611.284 C 132.405 611.284 132.405 635.284 149.715 635.284 C 167.026 635.284 167.026 611.284 184.337 611.284 C 201.647 611.284 201.647 635.284 218.956 635.284 C 236.267 635.284 236.267 611.284 253.577 611.284 C 270.887 611.284 270.887 635.284 288.197 635.284 C 305.507 635.284 305.507 611.284 322.817 611.284 C 340.128 611.284 340.128 635.284 357.438 635.284 C 374.749 635.284 374.749 611.284 392.061 611.284 C 409.373 611.284 409.373 635.284 426.685 635.284 C 443.994 635.284 443.994 611.284 461.303 611.284 C 478.613 611.284 478.613 635.284 495.922 635.284 C 513.234 635.284 513.234 611.284 530.545 611.284 C 547.857 611.284 547.857 635.284 565.169 635.284 C 582.482 635.284 582.482 611.284 599.795 611.284 C 617.107 611.284 617.107 635.284 634.419 635.284 C 651.734 635.284 651.734 611.284 669.048 611.284 C 686.363 611.284 686.363 635.284 703.677 635.284" style="clip-path: url(#clip-1);"/>
      </g>
      <g/>
    </g>
    <g>
      <path class="st5" d="M252.647,195.466c0,0,31.976,43.419,51.413,68.626l-27.109-47.964l46.707-54.089l69.593,61.728L359.116,184.7 l34.813-61.116l82.1,123.005l-13.99-30.655c19.437-25.175,18.212-18.954,18.212-18.954L565.686,328.2l-381.665-1.515 L252.647,195.466z"/>
    </g>
    <path class="st6" d="M225.228,474.837c0,0,6.937-38.142,208.043-53.024c232.874-17.234,0.28-121.721,0.28-121.721"/>
    <path class="st6" d="M328.748,500.053c0,0-11.945-64.7,141.973-80.828c233.543-24.471,17.882-140.132,17.882-140.132"/>
    <g>
      <path class="st7" d="M51.684,163.539l6.897-8.782l23.643,2.835l-8.353-22.304l6.897-8.782l37.833,29.726l-6.357,8.094 L87.545,144.92l7.975,23.119l-0.166,0.211l-24.1-2.254l24.537,19.279l-6.274,7.988L51.684,163.539z" style="fill: rgb(255, 255, 255);"/>
      <path class="st7" d="M105.581,135.044l-0.093-0.101c-9.243-10.082-9.028-25.476,1.684-35.294 c10.711-9.818,25.876-8.708,35.119,1.373l0.093,0.102c9.243,10.081,9.028,25.475-1.684,35.293S114.824,145.125,105.581,135.044z M134.492,108.543l-0.093-0.101c-5.574-6.079-14.583-7.145-20.732-1.508c-6.149,5.636-5.862,14.51-0.289,20.589l0.093,0.101 c5.574,6.079,14.583,7.145,20.731,1.509C140.353,123.496,140.066,114.622,134.492,108.543z" style="fill: rgb(255, 255, 255);"/>
      <path class="st7" d="M135.977,76.099l15.284-10.177c12.317-8.201,26.577-5.229,34.08,6.04l0.076,0.115 c7.503,11.27,4.821,25.688-7.496,33.889l-15.284,10.177L135.977,76.099z M172.627,98.015c7.054-4.697,8.576-12.728,3.853-19.822 l-0.076-0.114c-4.723-7.093-12.795-8.902-19.849-4.205l-6.662,4.436l16.072,24.14L172.627,98.015z" style="fill: rgb(255, 255, 255);"/>
      <path class="st7" d="M182.323,46.692l32.263-15.64l4.198,8.658l-22.941,11.121l4.468,9.215l20.217-9.8l4.198,8.658l-20.218,9.8 l8.126,16.76l-9.322,4.519L182.323,46.692z" style="fill: rgb(255, 255, 255);"/>
      <path class="st7" d="M223.911,27.472l9.796-3.37l12.519,36.401l22.201-7.636l3.129,9.1l-31.998,11.006L223.911,27.472z" style="fill: rgb(255, 255, 255);"/>
      <path class="st7" d="M265.617,38.421l-0.027-0.135c-2.708-13.406,5.425-26.479,19.666-29.356 c14.242-2.877,26.653,5.904,29.361,19.311l0.027,0.135c2.708,13.406-5.425,26.479-19.666,29.355 C280.736,60.608,268.325,51.827,265.617,38.421z M304.056,30.655l-0.027-0.135c-1.633-8.084-8.797-13.648-16.973-11.997 c-8.175,1.651-12.512,9.399-10.878,17.483l0.027,0.135c1.633,8.084,8.797,13.648,16.973,11.997 C301.353,46.486,305.689,38.739,304.056,30.655z" style="fill: rgb(255, 255, 255);"/>
      <path class="st7" d="M316.743,3.087l11.098-0.207l10.36,32.395l9.95-32.91l8.878-0.165l11.17,32.517l9.146-32.757l10.829-0.201 l-15.172,48.75l-9.013,0.167l-11.214-31.278l-10.041,31.674l-9.013,0.167L316.743,3.087z" style="fill: rgb(255, 255, 255);"/>
      <path class="st7" d="M435.438,54.469c-4.412,2.379-9.259,3.545-14.592,2.432c-8.823-1.84-14.378-8.475-12.638-16.817l0.028-0.134 c1.249-5.988,5.294-9.567,11.649-11.049c-1.564-3.696-1.935-6.862-1.261-10.092l0.028-0.134 c1.348-6.458,7.653-11.321,16.541-9.468c7.836,1.634,11.876,7.953,10.501,14.546l-0.028,0.135 c-1.319,6.324-6.042,9.2-12.248,10.293l4.818,7.534c2.02-2.106,4.109-4.548,6.161-7.139l6.57,5.723 c-2.466,2.926-5.171,6.012-8.136,8.693l5.336,8.344l-8.549,3.763L435.438,54.469z M431.011,47.368l-6.913-10.99 c-3.366,0.983-5.095,3.009-5.571,5.296l-0.028,0.135c-0.688,3.296,1.549,6.08,5.302,6.862 C426.104,49.153,428.553,48.61,431.011,47.368z M436.718,22.653l0.028-0.134c0.562-2.691-0.865-4.744-3.434-5.279 c-2.699-0.563-4.884,1.017-5.474,3.843l-0.028,0.134c-0.435,2.085,0.032,3.798,1.479,6.416 C433.629,26.923,436.1,25.613,436.718,22.653z" style="fill: rgb(255, 255, 255);"/>
      <path class="st7" d="M485.54,23.403l10.254,4.425l3.303,23.586l19.428-13.776l10.253,4.425L509.712,86.24l-9.45-4.079 l12.447-28.842l-20.312,13.619l-0.247-0.106l-3.982-23.879l-12.365,28.652l-9.327-4.025L485.54,23.403z" style="fill: rgb(255, 255, 255);"/>
      <path class="st7" d="M526.888,68.25l0.074-0.116c7.4-11.502,22.342-15.21,34.56-7.35c12.218,7.861,14.999,22.808,7.599,34.31 l-0.074,0.116c-7.399,11.502-22.342,15.21-34.56,7.35C522.269,94.699,519.488,79.752,526.888,68.25z M559.865,89.466l0.075-0.115 c4.462-6.936,3.203-15.919-3.812-20.431c-7.014-4.513-15.522-1.978-19.984,4.958l-0.074,0.115 c-4.463,6.936-3.203,15.919,3.811,20.432C546.894,98.937,555.403,96.402,559.865,89.466z" style="fill: rgb(255, 255, 255);"/>
      <path class="st7" d="M591.382,82.598l16.177,14.199c4.499,3.949,6.854,8.302,7.093,12.719c0.202,3.745-1.23,7.518-4.223,10.926 l-0.091,0.104c-5.125,5.836-11.428,6.797-17.424,4.552l-2.692,20.5l-9.1-7.987l2.575-18.226l-6.117-5.369l-10.158,11.57 l-7.785-6.833L591.382,82.598z M591.634,113.915c3.792,3.328,7.779,3.17,10.455,0.122l0.091-0.103 c2.993-3.409,2.209-7.207-1.582-10.534l-7.734-6.789l-9.115,10.382L591.634,113.915z" style="fill: rgb(255, 255, 255);"/>
      <path class="st7" d="M628.83,116.801l23.413,26.708l-7.08,6.207l-16.629-18.969l-7.339,6.433l14.633,16.692l-7.08,6.207 l-14.633-16.692l-7.597,6.66l16.85,19.221l-7.08,6.207l-23.635-26.96L628.83,116.801z" style="fill: rgb(255, 255, 255);"/>
    </g>
    <polyline class="st6" points="601.662,464.928 606.728,508.811 566.87,513.412 &#9;"/>
    <g>
      <path class="st7" d="M30.138,414.326l0.681,6.098l-11.209,1.255l1.257,11.245l11.209-1.255l0.682,6.098l-28.327,3.173 l-0.681-6.099l11.371-1.273l-1.257-11.245l-11.371,1.273l-0.682-6.098L30.138,414.326z" style="fill: rgb(255, 255, 255);"/>
      <path class="st7" d="M18.299,454.584l14.819-13.902l1.409,7.034l-9.91,8.772l12.548,4.396l1.37,6.839l-18.911-7.146l-11.137,2.231 l-1.206-6.019L18.299,454.584z" style="fill: rgb(255, 255, 255);"/>
      <path class="st7" d="M39.294,470.479l3.07,10.439c2.474,8.412-1.715,15.96-9.41,18.223l-0.078,0.023 c-7.695,2.264-15.381-1.791-17.855-10.203l-3.07-10.439L39.294,470.479z M20.45,487.363c1.417,4.818,5.693,7.092,10.537,5.667 l0.078-0.022c4.844-1.425,7.286-5.675,5.869-10.493l-1.338-4.55l-16.484,4.849L20.45,487.363z" style="fill: rgb(255, 255, 255);"/>
      <path class="st7" d="M48.111,499.383l4.668,11.865c1.298,3.301,1.358,6.231,0.286,8.623c-0.909,2.027-2.686,3.626-5.187,4.61 l-0.076,0.029c-4.281,1.685-7.861,0.481-10.41-2.327l-6.978,10.067l-2.626-6.674l6.299-8.901l-1.765-4.486l-8.487,3.34 l-2.247-5.711L48.111,499.383z M39.752,515.946c1.094,2.781,3.236,3.779,5.472,2.899l0.076-0.029 c2.5-0.984,3.118-3.197,2.023-5.978l-2.232-5.673l-7.615,2.996L39.752,515.946z" style="fill: rgb(255, 255, 255);"/>
      <path class="st7" d="M45.078,530.572l0.073-0.037c7.236-3.646,15.98-1.047,19.856,6.639c3.876,7.687,0.803,16.152-6.433,19.799 l-0.073,0.037c-7.236,3.646-15.98,1.047-19.856-6.639C34.769,542.685,37.842,534.219,45.078,530.572z M55.539,551.317l0.073-0.037 c4.363-2.199,6.42-7.163,4.195-11.575s-7.332-5.677-11.695-3.478l-0.073,0.037c-4.364,2.199-6.421,7.163-4.196,11.575 S51.176,553.517,55.539,551.317z" style="fill: rgb(255, 255, 255);"/>
      <path class="st7" d="M73.669,554.438l3.224,5.222l-19.405,11.979l7.306,11.833l-4.851,2.995l-10.53-17.055L73.669,554.438z" style="fill: rgb(255, 255, 255);"/>
      <path class="st7" d="M73.036,580.832l0.066-0.049c6.528-4.801,15.582-3.692,20.681,3.242s3.476,15.795-3.053,20.596l-0.065,0.048 c-6.529,4.801-15.582,3.692-20.681-3.242C64.885,594.492,66.508,585.633,73.036,580.832z M86.798,599.549l0.065-0.049 c3.937-2.895,5.14-8.132,2.213-12.113c-2.927-3.98-8.172-4.378-12.109-1.482l-0.066,0.048c-3.937,2.896-5.14,8.133-2.213,12.113 C77.616,602.047,82.861,602.443,86.798,599.549z" style="fill: rgb(255, 255, 255);"/>
      <path class="st7" d="M93.532,608.233l0.061-0.054c6.042-5.399,15.107-5.214,20.736,1.088c3.345,3.745,4.331,6.926,4.386,10.778 l-6.128,0.291c-0.067-2.826-0.552-4.958-2.703-7.366c-2.974-3.329-8.342-3.288-11.956-0.06l-0.061,0.054 c-3.887,3.473-4.405,8.639-1.112,12.324c1.487,1.665,3.239,2.771,5.125,3.171l3.037-2.713l-4.115-4.607l4.039-3.608l8.071,9.036 l-9.231,8.248c-3.764-0.485-7.911-2.071-11.309-5.876C86.583,622.459,87.246,613.85,93.532,608.233z" style="fill: rgb(255, 255, 255);"/>
      <path class="st7" d="M125.949,622.252l4.378,4.303l-19.984,20.326l-4.378-4.303L125.949,622.252z" style="fill: rgb(255, 255, 255);"/>
      <path class="st7" d="M124.443,641.031l0.054-0.062c5.308-6.122,14.171-7.22,20.644-1.606c3.974,3.446,5.179,6.862,5.429,10.528 l-5.964,0.917c-0.319-2.917-1.174-5.275-3.282-7.104c-3.553-3.08-8.726-2.285-11.926,1.406l-0.053,0.062 c-3.201,3.691-3.369,8.935,0.244,12.067c2.408,2.089,4.737,2.384,7.727,2.281l0.31,5.604c-4.221,0.488-7.91-0.123-11.974-3.647 C119.448,656.1,119.083,647.214,124.443,641.031z" style="fill: rgb(255, 255, 255);"/>
      <path class="st7" d="M165.597,656.5l5.512,3.658l-0.557,14.094l12.775-5.985l5.512,3.657l-15.765,23.744l-5.08-3.371 l10.292-15.502l-13.275,5.802l-0.133-0.088l0.192-14.337l-10.225,15.399l-5.014-3.327L165.597,656.5z" style="fill: rgb(255, 255, 255);"/>
      <path class="st7" d="M185.886,686.871l0.038-0.072c3.784-7.166,12.417-10.115,20.03-6.098c7.614,4.018,10.016,12.698,6.232,19.864 l-0.038,0.072c-3.784,7.166-12.417,10.116-20.03,6.098C184.505,702.718,182.103,694.037,185.886,686.871z M206.436,697.715 l0.038-0.071c2.282-4.321,1.081-9.56-3.29-11.866s-9.265-0.377-11.547,3.944l-0.038,0.072c-2.281,4.321-1.081,9.559,3.29,11.865 S204.154,702.036,206.436,697.715z" style="fill: rgb(255, 255, 255);"/>
      <path class="st7" d="M222.885,689.815l10.064,4.133c8.11,3.33,11.377,11.317,8.33,18.735l-0.031,0.076 c-3.048,7.418-11.019,10.879-19.129,7.549l-10.064-4.132L222.885,689.815z M224.27,715.074c4.645,1.907,9.094-0.007,11.012-4.677 l0.031-0.075c1.918-4.67,0.131-9.232-4.514-11.14l-4.387-1.802l-6.529,15.893L224.27,715.074z" style="fill: rgb(255, 255, 255);"/>
      <path class="st7" d="M250.96,700.975l20.077,6.3l-1.67,5.322l-14.259-4.475l-1.731,5.517l12.548,3.938l-1.67,5.322l-12.548-3.938 l-1.792,5.711l14.45,4.534l-1.67,5.322l-20.268-6.36L250.96,700.975z" style="fill: rgb(255, 255, 255);"/>
      <path class="st7" d="M275.735,708.482l5.978,1.389l-5.161,22.208l13.548,3.147l-1.29,5.553l-19.526-4.536L275.735,708.482z" style="fill: rgb(255, 255, 255);"/>
      <path class="st7" d="M299.535,713.656l6.046,1.05l-4.881,28.081l-6.046-1.05L299.535,713.656z" style="fill: rgb(255, 255, 255);"/>
      <path class="st7" d="M311.736,715.883l5.627,0.601l11.137,18.834l1.861-17.447l6.023,0.642l-3.023,28.338l-5.191-0.554 l-11.512-19.447l-1.921,18.014l-6.023-0.642L311.736,715.883z" style="fill: rgb(255, 255, 255);"/>
      <path class="st7" d="M340.58,733.148l0.001-0.082c0.13-8.102,6.413-14.638,14.859-14.502c5.02,0.081,8.026,1.514,10.893,4.085 l-3.941,4.7c-2.123-1.866-4.017-2.955-7.245-3.008c-4.462-0.071-8.073,3.902-8.151,8.746l-0.001,0.082 c-0.084,5.211,3.36,9.094,8.301,9.174c2.231,0.035,4.232-0.502,5.805-1.617l0.065-4.071l-6.176-0.1l0.088-5.414l12.112,0.194 l-0.199,12.376c-2.909,2.438-6.886,4.41-11.986,4.328C346.319,747.899,340.444,741.575,340.58,733.148z" style="fill: rgb(255, 255, 255);"/>
      <path class="st7" d="M384.454,718.168l6.117-0.512l2.382,28.4l-6.117,0.513L384.454,718.168z" style="fill: rgb(255, 255, 255);"/>
      <path class="st7" d="M396.834,717.229l5.597-0.841l15.538,15.413l-2.61-17.355l5.991-0.899l4.24,28.188l-5.163,0.775 l-16.058-15.912l2.696,17.919l-5.991,0.9L396.834,717.229z" style="fill: rgb(255, 255, 255);"/>
      <path class="st7" d="M447.38,707.067l5.442-1.549l19.363,24.341l-6.172,1.757l-4.204-5.451l-11.346,3.229l-0.702,6.848 l-6.018,1.713L447.38,707.067z M458.185,721.438l-6.097-7.876l-1.033,9.905L458.185,721.438z" style="fill: rgb(255, 255, 255);"/>
      <path class="st7" d="M482.86,710.932l-0.031-0.075c-3.177-7.454-0.278-15.904,7.605-19.264c4.84-2.062,8.438-1.648,11.844-0.267 l-1.79,5.765c-2.762-0.992-5.258-1.257-7.824-0.163c-4.326,1.844-5.879,6.843-3.964,11.338l0.032,0.075 c1.915,4.495,6.555,6.944,10.954,5.069c2.934-1.25,4.22-3.214,5.438-5.946l5.173,2.177c-1.41,4.01-3.578,7.058-8.528,9.167 C494.216,722.026,486.068,718.461,482.86,710.932z" style="fill: rgb(255, 255, 255);"/>
      <path class="st7" d="M504.465,685.893L509.88,683l5.312,9.95l9.984-5.335l-5.312-9.949l5.414-2.893l13.426,25.144l-5.414,2.893 l-5.39-10.094l-9.984,5.335l5.39,10.093l-5.414,2.893L504.465,685.893z" style="fill: rgb(255, 255, 255);"/>
      <path class="st7" d="M538.105,666.453l4.729-3.107l25.753,17.425l-5.363,3.522l-5.642-3.941l-9.859,6.477l1.378,6.742 l-5.229,3.436L538.105,666.453z M552.711,676.927l-8.172-5.688l1.977,9.759L552.711,676.927z" style="fill: rgb(255, 255, 255);"/>
      <path class="st7" d="M555.545,654.92l4.425-3.527l21.163,5.57l-10.943-13.719l4.736-3.775l17.773,22.28l-4.082,3.254 l-21.861-5.742l11.299,14.164l-4.736,3.775L555.545,654.92z" style="fill: rgb(255, 255, 255);"/>
      <path class="st7" d="M588.263,646.876l-0.057-0.059c-5.611-5.849-5.752-14.915,0.343-20.764c3.622-3.476,6.766-4.573,10.612-4.765 l0.511,6.114c-2.821,0.167-4.935,0.728-7.263,2.962c-3.22,3.09-2.987,8.454,0.369,11.951l0.056,0.06 c3.609,3.762,8.79,4.097,12.354,0.675c1.61-1.545,2.653-3.335,2.984-5.234l-2.819-2.938l-4.456,4.276l-3.751-3.909l8.739-8.387 l8.572,8.935c-0.35,3.778-1.785,7.979-5.465,11.511C602.726,653.317,594.1,652.96,588.263,646.876z" style="fill: rgb(255, 255, 255);"/>
      <path class="st7" d="M601.113,613.995l4.143-4.528l21.031,19.236l-4.143,4.528L601.113,613.995z" style="fill: rgb(255, 255, 255);"/>
      <path class="st7" d="M609.562,604.908l3.539-4.415l21.865,0.776l-13.692-10.977l3.787-4.727l22.238,17.826l-3.265,4.074 l-22.584-0.791l14.138,11.333l-3.788,4.727L609.562,604.908z" style="fill: rgb(255, 255, 255);"/>
      <path class="st7" d="M639.707,589.878l-0.068-0.045c-6.759-4.467-8.89-13.279-4.231-20.328c2.769-4.188,5.593-5.953,9.303-6.988 l1.843,5.852c-2.715,0.785-4.652,1.798-6.433,4.49c-2.461,3.725-1.054,8.905,2.988,11.576l0.068,0.045 c4.348,2.873,9.474,2.058,12.198-2.065c1.23-1.862,1.854-3.839,1.76-5.764l-3.396-2.245l-3.406,5.154l-4.518-2.985l6.68-10.107 l10.326,6.823c0.489,3.763,0.013,8.177-2.8,12.433C655.23,592.971,646.737,594.524,639.707,589.878z" style="fill: rgb(255, 255, 255);"/>
      <path class="st7" d="M649.852,547.732l2.784-5.957l19.929,2.938l-14.906-13.875l2.228-4.766l20.205,2.539l-15.034-13.407 l2.717-5.812l21.968,20.784l-2.262,4.838l-19.558-2.193l14.225,13.602l-2.262,4.838L649.852,547.732z" style="fill: rgb(255, 255, 255);"/>
      <path class="st7" d="M681.22,513.355l-0.077-0.026c-7.676-2.596-11.961-10.649-9.205-18.803 c2.755-8.154,10.942-11.905,18.619-9.31l0.077,0.026c7.676,2.597,11.961,10.649,9.206,18.804 C697.085,512.201,688.897,515.952,681.22,513.355z M688.658,491.348l-0.077-0.026c-4.629-1.565-9.609,0.452-11.191,5.133 c-1.581,4.681,1.102,9.206,5.73,10.771l0.077,0.026c4.629,1.565,9.609-0.452,11.191-5.133 C695.969,497.438,693.287,492.913,688.658,491.348z" style="fill: rgb(255, 255, 255);"/>
      <path class="st7" d="M678.211,476.318l2.949-12.406c0.82-3.451,2.446-5.892,4.692-7.241c1.904-1.146,4.276-1.441,6.891-0.82 l0.08,0.019c4.476,1.064,6.726,4.098,7.213,7.859l11.479-4.276l-1.658,6.979l-10.256,3.707l-1.115,4.691l8.873,2.109l-1.419,5.971 L678.211,476.318z M694.536,467.5c0.691-2.907-0.497-4.951-2.834-5.507l-0.079-0.019c-2.614-0.622-4.386,0.842-5.077,3.75 l-1.409,5.932l7.962,1.893L694.536,467.5z" style="fill: rgb(255, 255, 255);"/>
      <path class="st7" d="M684.367,449.035l0.945-6.064l22.532,3.512l2.142-13.745l5.633,0.878l-3.085,19.81L684.367,449.035z" style="fill: rgb(255, 255, 255);"/>
      <path class="st7" d="M687.926,425.539l0.791-10.852c0.638-8.745,7.21-14.34,15.209-13.757l0.081,0.006 c7.999,0.584,13.771,7.078,13.133,15.823l-0.792,10.852L687.926,425.539z M711.496,416.349c0.366-5.009-2.839-8.639-7.874-9.006 l-0.081-0.006c-5.035-0.367-8.813,2.754-9.179,7.762l-0.346,4.73l17.135,1.249L711.496,416.349z" style="fill: rgb(255, 255, 255);"/>
    </g>
  </g>
</svg>